<svg xmlns="http://www.w3.org/2000/svg" version="1.1" xmlns:xlink="http://www.w3.org/1999/xlink" xmlns:svgjs="http://svgjs.com/svgjs" width="283" height="64" preserveAspectRatio="none" viewBox="0 0 283 64"><g mask="url(&quot;#SvgjsMask1053&quot;)" fill="none"><rect width="283" height="64" x="0" y="0" fill="url(#SvgjsLinearGradient1054)"></rect><path d="M 0,20 C 11.4,25.2 34.2,44.6 57,46 C 79.8,47.4 91.2,29.2 114,27 C 136.8,24.8 148.2,38.4 171,35 C 193.8,31.6 205.6,5 228,10 C 250.4,15 272,50 283,60L283 64L0 64z" fill="#184a7e"></path><path d="M 0,36 C 19,33.4 57,19.2 95,23 C 133,26.8 152.4,53.4 190,55 C 227.6,56.6 264.4,35.8 283,31L283 64L0 64z" fill="#2264ab"></path></g><defs><mask id="SvgjsMask1053"><rect width="283" height="64" fill="#ffffff"></rect></mask><linearGradient x1="50%" y1="100%" x2="50%" y2="0%" gradientUnits="userSpaceOnUse" id="SvgjsLinearGradient1054"><stop stop-color="#0e2a47" offset="0"></stop><stop stop-color="rgba(123, 136, 151, 1)" offset="1"></stop></linearGradient></defs></svg>